<svg width="230" height="68" viewBox="0 0 230 68" fill="none" xmlns="http://www.w3.org/2000/svg">
<path d="M0.318845 34.5216C0.123119 34.2014 0.123119 33.7986 0.318845 33.4784L16.1468 7.58666C16.6735 6.72503 18 7.09836 18 8.10823L18 59.8918C18 60.9016 16.6735 61.275 16.1468 60.4133L0.318845 34.5216Z" fill="#C4C4C4"/>
<path d="M229.681 33.4784C229.877 33.7986 229.877 34.2014 229.681 34.5216L213.853 60.4133C213.326 61.275 212 60.9016 212 59.8918V8.10823C212 7.09835 213.326 6.72503 213.853 7.58666L229.681 33.4784Z" fill="#C4C4C4"/>
<rect x="17" y="7" width="196" height="54" fill="#C4C4C4"/>
<rect x="15" y="9" width="200" height="50" rx="6" fill="#008AE2"/>
<rect x="24" y="14" width="180" height="40" rx="5" fill="white"/>
<path d="M19.098 34.3054C19.0343 34.1068 19.0343 33.8932 19.098 33.6946L24.5478 16.7037C24.8963 15.6173 26.5 15.8682 26.5 17.0091L26.5 50.9909C26.5 52.1318 24.8963 52.3827 24.5478 51.2963L19.098 34.3054Z" fill="white"/>
<path d="M208.902 33.6946C208.966 33.8932 208.966 34.1068 208.902 34.3054L203.452 51.2963C203.104 52.3827 201.5 52.1318 201.5 50.9909V17.0091C201.5 15.8682 203.104 15.6173 203.452 16.7037L208.902 33.6946Z" fill="white"/>
<path d="M3.28868 34.5C3.11004 34.1906 3.11004 33.8094 3.28868 33.5L16.134 11.2513C16.6455 10.3653 18 10.7282 18 11.7513L18 56.2487C18 57.2718 16.6455 57.6347 16.134 56.7487L3.28868 34.5Z" fill="#008AE2"/>
<path d="M226.711 33.5C226.89 33.8094 226.89 34.1906 226.711 34.5L213.866 56.7487C213.354 57.6347 212 57.2718 212 56.2487V11.7513C212 10.7282 213.354 10.3653 213.866 11.2513L226.711 33.5Z" fill="#008AE2"/>
</svg>
