<svg width="230" height="68" viewBox="0 0 230 68" fill="none" xmlns="http://www.w3.org/2000/svg">
<path d="M0.318845 34.5216C0.123119 34.2014 0.123119 33.7986 0.318845 33.4784L16.1468 7.58666C16.6735 6.72503 18 7.09836 18 8.10823L18 59.8918C18 60.9016 16.6735 61.275 16.1468 60.4133L0.318845 34.5216Z" fill="#C4C4C4"/>
<path d="M229.681 33.4784C229.877 33.7986 229.877 34.2014 229.681 34.5216L213.853 60.4133C213.326 61.275 212 60.9016 212 59.8918V8.10823C212 7.09835 213.326 6.72503 213.853 7.58666L229.681 33.4784Z" fill="#C4C4C4"/>
<rect x="17" y="7" width="196" height="54" fill="#C4C4C4"/>
<rect x="15" y="9" width="200" height="50" rx="6" fill="#008AE2"/>
<rect x="24" y="14" width="180" height="40" rx="5" fill="white"/>
<path d="M19.098 34.3054C19.0343 34.1068 19.0343 33.8932 19.098 33.6946L24.5478 16.7037C24.8963 15.6173 26.5 15.8682 26.5 17.0091L26.5 50.9909C26.5 52.1318 24.8963 52.3827 24.5478 51.2963L19.098 34.3054Z" fill="white"/>
<path d="M208.902 33.6946C208.966 33.8932 208.966 34.1068 208.902 34.3054L203.452 51.2963C203.104 52.3827 201.5 52.1318 201.5 50.9909V17.0091C201.5 15.8682 203.104 15.6173 203.452 16.7037L208.902 33.6946Z" fill="white"/>
<path d="M3.28868 34.5C3.11004 34.1906 3.11004 33.8094 3.28868 33.5L16.134 11.2513C16.6455 10.3653 18 10.7282 18 11.7513L18 56.2487C18 57.2718 16.6455 57.6347 16.134 56.7487L3.28868 34.5Z" fill="#008AE2"/>
<path d="M226.711 33.5C226.89 33.8094 226.89 34.1906 226.711 34.5L213.866 56.7487C213.354 57.6347 212 57.2718 212 56.2487V11.7513C212 10.7282 213.354 10.3653 213.866 11.2513L226.711 33.5Z" fill="#008AE2"/>
<path d="M49.52 23.6H43.68C43.56 23.6 43.5 23.54 43.5 23.44C43.5 23 43.36 22.64 43.06 22.34C42.76 22.04 42.4 21.9 41.98 21.9H41.9C41.48 21.9 41.12 22.04 40.82 22.34C40.52 22.64 40.38 23 40.38 23.44C40.38 23.54 40.32 23.6 40.2 23.6H34.44C34.08 23.6 33.76 23.74 33.46 24C33.2 24.3 33.06 24.62 33.06 24.98C33.06 25.36 33.2 25.68 33.46 25.98C33.76 26.24 34.08 26.38 34.44 26.38H49.52C49.88 26.38 50.2 26.24 50.5 25.98C50.76 25.68 50.9 25.36 50.9 24.98C50.9 24.62 50.76 24.3 50.5 24C50.2 23.74 49.88 23.6 49.52 23.6ZM33.12 38.4C33.12 38.82 33.28 39.12 33.58 39.34C33.92 39.56 34.28 39.68 34.7 39.68H34.74C35.16 39.68 35.52 39.54 35.82 39.24C36.52 38.52 37.14 37.78 37.7 37.02C37.84 36.8 37.92 36.6 37.92 36.38C37.92 36.24 37.9 36.12 37.86 36C37.72 35.62 37.48 35.38 37.1 35.26C36.92 35.2 36.74 35.18 36.54 35.18C36.3 35.18 36.06 35.22 35.82 35.3C35.42 35.46 35.08 35.72 34.78 36.1C34.42 36.6 33.98 37.08 33.46 37.58C33.24 37.8 33.12 38.08 33.12 38.4ZM35.24 32.54C35.24 33 35.4 33.4 35.74 33.74C36.1 34.08 36.5 34.24 36.94 34.24H40.24C40.38 34.24 40.44 34.3 40.44 34.42V37.86C40.44 37.98 40.4 38.06 40.34 38.1C40.3 38.14 40.18 38.16 40 38.16H39.06C38.72 38.16 38.46 38.3 38.26 38.58C38.16 38.76 38.1 38.96 38.1 39.14C38.1 39.28 38.12 39.38 38.16 39.48C38.28 39.9 38.52 40.24 38.86 40.5C39.16 40.76 39.5 40.88 39.9 40.88H39.96C40.9 40.84 41.66 40.7 42.24 40.48C42.7 40.28 43.04 40 43.24 39.62C43.42 39.26 43.5 38.7 43.5 37.96V34.42C43.5 34.3 43.56 34.24 43.7 34.24H47.18C47.62 34.24 48.02 34.08 48.38 33.74C48.72 33.38 48.88 32.98 48.88 32.54V29.22C48.88 28.76 48.72 28.36 48.38 28.02C48.04 27.68 47.64 27.52 47.18 27.52H36.94C36.48 27.52 36.08 27.68 35.74 28.02C35.4 28.34 35.24 28.74 35.24 29.22V32.54ZM38.14 31.56V30.2C38.14 30.06 38.2 30 38.32 30H45.6C45.72 30 45.78 30.06 45.78 30.2V31.56C45.78 31.7 45.72 31.76 45.6 31.76H38.32C38.2 31.76 38.14 31.7 38.14 31.56ZM45.9 36.44C45.9 36.7 46 36.94 46.18 37.16C46.76 37.9 47.26 38.52 47.64 39.06C47.92 39.44 48.28 39.68 48.7 39.8C48.84 39.86 49.02 39.88 49.2 39.88C49.46 39.88 49.72 39.82 49.96 39.7C50.34 39.52 50.6 39.2 50.72 38.78L50.76 38.46C50.76 38.16 50.66 37.9 50.48 37.68C50.04 37.14 49.52 36.52 48.9 35.86C48.6 35.52 48.24 35.32 47.8 35.24C47.72 35.22 47.6 35.2 47.42 35.2C47.1 35.2 46.8 35.26 46.54 35.4C46.2 35.56 46 35.82 45.92 36.18L45.9 36.44ZM66.44 25.72H67.92C67.98 25.72 68.02 25.74 68.04 25.78C68.06 25.8 68.08 25.86 68.08 25.92L67.24 28.86C67.16 29.14 67.12 29.44 67.12 29.74C67.12 30.4 67.32 31.1 67.74 31.84C68.2 32.64 68.44 33.48 68.44 34.36C68.44 35.02 68.28 35.44 67.98 35.6C67.8 35.7 67.54 35.76 67.22 35.76C66.84 35.76 66.58 35.76 66.44 35.74C66.3 35.72 66.24 35.66 66.24 35.52V25.92C66.24 25.78 66.3 25.72 66.44 25.72ZM52.68 28.86C52.68 29.2 52.8 29.5 53.04 29.74C53.28 29.98 53.58 30.1 53.94 30.1H56.48L56.54 30.14C56.54 30.16 56.54 30.2 56.52 30.24C55.5 31.18 54.46 31.94 53.42 32.54C53.12 32.72 52.9 32.98 52.8 33.36C52.78 33.5 52.76 33.6 52.76 33.66C52.76 33.92 52.84 34.16 53 34.4L53.4 35.04C53.54 35.22 53.68 35.32 53.82 35.36C54 35.42 54.16 35.4 54.32 35.3C54.38 35.28 54.4 35.3 54.4 35.34V39.56C54.4 39.94 54.52 40.24 54.78 40.5C55.06 40.76 55.38 40.88 55.72 40.88H56.16C56.4 40.88 56.6 40.8 56.76 40.62C56.94 40.46 57.02 40.26 57.02 40.02C57.02 39.96 57.06 39.92 57.12 39.92H59.48C59.54 39.92 59.56 39.94 59.56 40C59.56 40.16 59.62 40.3 59.74 40.42C59.86 40.54 60 40.6 60.16 40.6H60.92C61.28 40.6 61.6 40.46 61.9 40.2C62.16 39.94 62.3 39.62 62.3 39.24V33.02C62.3 32.58 62.14 32.18 61.8 31.82C61.44 31.48 61.04 31.32 60.6 31.32H59.42C59.4 31.32 59.36 31.3 59.34 31.26C59.32 31.22 59.32 31.18 59.34 31.16C59.66 30.82 59.92 30.5 60.12 30.24C60.2 30.14 60.3 30.1 60.44 30.1H61.6C61.96 30.1 62.26 29.98 62.5 29.74C62.74 29.5 62.86 29.2 62.86 28.84V28.46C62.86 28.22 62.78 28.02 62.6 27.84C62.44 27.68 62.24 27.6 62 27.6C61.94 27.6 61.92 27.58 61.94 27.52C62.38 26.76 62.84 25.84 63.3 24.74C63.3 24.72 63.32 24.7 63.34 24.72C63.36 24.72 63.38 24.74 63.38 24.76V39.44C63.38 39.84 63.52 40.18 63.8 40.46C64.08 40.74 64.42 40.88 64.82 40.88C65.2 40.88 65.54 40.74 65.82 40.46C66.1 40.18 66.24 39.84 66.24 39.44V36.04C66.24 36.02 66.26 36 66.28 36C66.3 36 66.32 36 66.32 36.02C66.44 36.26 66.54 36.54 66.62 36.86C66.8 37.4 67.06 37.8 67.4 38.1C67.7 38.36 68.04 38.5 68.38 38.5L68.62 38.48C68.84 38.46 69.1 38.38 69.4 38.28C69.66 38.18 69.86 38.06 70.04 37.92C70.82 37.38 71.22 36.3 71.22 34.7C71.22 33.08 70.7 31.6 69.64 30.26C69.56 30.16 69.54 30.04 69.6 29.94C70.14 28.56 70.7 27.04 71.26 25.38C71.32 25.2 71.36 25.04 71.36 24.88C71.36 24.7 71.32 24.54 71.26 24.36C71.12 24 70.9 23.74 70.6 23.56L69.88 23.1C69.7 23 69.52 22.96 69.38 22.96L69.16 22.98C69.14 23 69.12 23 69.08 23H63.86C63.72 23 63.62 23.04 63.52 23.14C63.42 23.26 63.38 23.38 63.38 23.48C63.38 23.5 63.36 23.52 63.32 23.52L62.78 23.36C62.64 23.3 62.48 23.28 62.3 23.28C61.98 23.28 61.7 23.36 61.46 23.5C61.02 23.72 60.72 24.04 60.54 24.48L60.42 24.74H60.4C60.38 24.74 60.38 24.74 60.38 24.72C60.38 24.5 60.3 24.3 60.14 24.14C59.98 23.98 59.78 23.9 59.56 23.9H58.76C58.64 23.9 58.58 23.84 58.58 23.7V23.4C58.58 23.02 58.46 22.72 58.2 22.46C57.94 22.2 57.62 22.06 57.24 22.06C56.88 22.06 56.56 22.2 56.3 22.46C56.04 22.72 55.9 23.04 55.9 23.4V23.7C55.9 23.84 55.84 23.9 55.72 23.9H54.76C54.42 23.9 54.12 24.02 53.88 24.26C53.64 24.5 53.52 24.8 53.52 25.14C53.52 25.48 53.64 25.78 53.88 26.02C54.12 26.26 54.42 26.38 54.76 26.38H55.72C55.84 26.38 55.9 26.44 55.9 26.58V27.4C55.9 27.54 55.84 27.6 55.72 27.6H53.94C53.58 27.6 53.28 27.72 53.04 27.96C52.8 28.22 52.68 28.52 52.68 28.86ZM57.02 37.42V36.84C57.02 36.7 57.08 36.64 57.22 36.64H59.36C59.5 36.64 59.56 36.7 59.56 36.84V37.42C59.56 37.56 59.5 37.62 59.36 37.62H57.22C57.08 37.62 57.02 37.56 57.02 37.42ZM57.02 34.3V33.8C57.02 33.66 57.08 33.6 57.22 33.6H59.36C59.5 33.6 59.56 33.66 59.56 33.8V34.3C59.56 34.42 59.5 34.48 59.36 34.48H57.22C57.08 34.48 57.02 34.42 57.02 34.3ZM58.58 27.5V26.58C58.58 26.44 58.64 26.38 58.78 26.38H59.38C59.44 26.38 59.46 26.4 59.48 26.44C59.5 26.48 59.5 26.52 59.48 26.54L58.86 27.52C58.8 27.58 58.74 27.6 58.68 27.6C58.62 27.6 58.58 27.56 58.58 27.5ZM83.6 29.18V29.48C83.6 29.62 83.54 29.68 83.4 29.68H82.1C81.96 29.68 81.9 29.62 81.9 29.48V29.18C81.9 29.04 81.96 28.98 82.1 28.98H83.4C83.54 28.98 83.6 29.04 83.6 29.18ZM72.54 30.98C72.54 31.34 72.68 31.66 72.94 31.92C73.2 32.18 73.5 32.32 73.88 32.32H74.7C74.84 32.32 74.9 32.38 74.9 32.52V36.04C74.9 36.16 74.84 36.26 74.74 36.32L73.66 37.02C73.26 37.26 73 37.6 72.88 38.02C72.82 38.22 72.78 38.4 72.78 38.56C72.78 38.78 72.84 39.02 72.94 39.28C73.1 39.64 73.38 39.88 73.8 39.98C73.94 40 74.04 40.02 74.1 40.02C74.38 40.02 74.64 39.92 74.86 39.74L76.32 38.56C76.42 38.46 76.5 38.46 76.58 38.58C77.16 39.26 77.82 39.74 78.56 40.04C79.34 40.34 80.28 40.52 81.4 40.56C82.4 40.62 83.64 40.64 85.1 40.64C86.6 40.64 88.02 40.62 89.36 40.56C89.78 40.54 90.16 40.38 90.5 40.12C90.84 39.84 91.08 39.48 91.22 39.06C91.24 38.92 91.26 38.82 91.26 38.74C91.26 38.52 91.2 38.34 91.06 38.16C90.88 37.9 90.62 37.78 90.32 37.78H90.26C88.3 37.9 86.46 37.96 84.74 37.96C83.46 37.96 82.36 37.94 81.44 37.88C80.52 37.84 79.76 37.7 79.18 37.44C78.6 37.18 78.12 36.78 77.78 36.2C77.72 36.1 77.68 35.98 77.68 35.84V31.34C77.68 30.88 77.52 30.48 77.18 30.14C76.84 29.8 76.44 29.64 75.98 29.64H73.88C73.52 29.64 73.2 29.78 72.94 30.04C72.68 30.3 72.54 30.62 72.54 30.98ZM73.42 24.1C73.42 24.46 73.58 24.78 73.88 25.04C74.42 25.5 74.86 25.92 75.22 26.28C75.48 26.56 75.82 26.72 76.24 26.76H76.34C76.7 26.76 77.02 26.62 77.28 26.36C77.6 26.06 77.76 25.68 77.76 25.24C77.76 24.86 77.62 24.52 77.32 24.24C77.08 24.02 76.6 23.64 75.9 23.1C75.6 22.88 75.3 22.76 74.96 22.76L74.84 22.78C74.42 22.82 74.08 22.98 73.8 23.24C73.54 23.48 73.42 23.76 73.42 24.1ZM79.18 35.92C79.18 36.3 79.32 36.62 79.58 36.88C79.84 37.14 80.16 37.28 80.54 37.28C80.92 37.28 81.24 37.14 81.5 36.88C81.76 36.62 81.9 36.3 81.9 35.92V34.66C81.9 34.52 81.96 34.46 82.1 34.46H83.4C83.54 34.46 83.6 34.52 83.6 34.66V35.92C83.6 36.26 83.72 36.56 83.98 36.82C84.24 37.08 84.54 37.2 84.9 37.2C85.24 37.2 85.54 37.08 85.8 36.82C86.06 36.56 86.18 36.26 86.18 35.92V34.66C86.18 34.52 86.24 34.46 86.38 34.46H87.72C87.86 34.46 87.92 34.52 87.92 34.66V34.84C87.92 34.94 87.9 35.02 87.86 35.06C87.82 35.1 87.74 35.12 87.64 35.12H87.56C87.3 35.12 87.08 35.24 86.92 35.46C86.82 35.6 86.76 35.76 86.76 35.94C86.76 36 86.78 36.1 86.8 36.2C86.9 36.54 87.08 36.82 87.38 37.04C87.6 37.24 87.88 37.34 88.18 37.34H88.26C88.92 37.28 89.42 37.14 89.78 36.96C90.12 36.78 90.36 36.52 90.48 36.22C90.62 35.94 90.68 35.5 90.68 34.88V28.62C90.68 28.16 90.52 27.76 90.18 27.42C89.82 27.08 89.42 26.92 88.98 26.92H88.5C88.36 26.92 88.24 26.9 88.14 26.84L87.42 26.48C87.4 26.46 87.38 26.42 87.38 26.4C87.38 26.38 87.4 26.34 87.42 26.28C88.26 25.72 89.06 25.1 89.8 24.44C90 24.26 90.1 24.02 90.1 23.76C90.1 23.46 89.98 23.22 89.76 23.02L89.3 22.68C89.1 22.52 88.88 22.44 88.66 22.44C88.56 22.44 88.46 22.44 88.4 22.46C88.38 22.48 88.34 22.48 88.28 22.48H80.54C80.24 22.48 79.98 22.58 79.78 22.8C79.56 23.02 79.46 23.26 79.46 23.56C79.46 23.86 79.56 24.1 79.78 24.32C79.98 24.54 80.24 24.64 80.54 24.64H82.5C82.54 24.64 82.56 24.66 82.56 24.7C82.58 24.72 82.58 24.74 82.54 24.76L82.26 25C82 25.2 81.88 25.46 81.88 25.76C81.88 25.84 81.88 25.9 81.9 25.94C81.96 26.32 82.16 26.58 82.5 26.74L82.74 26.84C82.76 26.84 82.76 26.86 82.76 26.9C82.76 26.92 82.74 26.92 82.72 26.92H80.88C80.44 26.92 80.04 27.08 79.68 27.42C79.34 27.76 79.18 28.16 79.18 28.62V35.92ZM81.9 32.2V31.86C81.9 31.72 81.96 31.66 82.1 31.66H83.4C83.54 31.66 83.6 31.72 83.6 31.86V32.2C83.6 32.34 83.54 32.4 83.4 32.4H82.1C81.96 32.4 81.9 32.34 81.9 32.2ZM83.18 24.68C83.18 24.66 83.2 24.64 83.22 24.64H85.74C85.76 24.64 85.78 24.66 85.78 24.68C85.8 24.7 85.8 24.74 85.76 24.76C85.54 24.94 85.3 25.1 85.08 25.24C84.98 25.32 84.86 25.34 84.74 25.28L84.04 25.02L83.22 24.7C83.2 24.7 83.18 24.7 83.18 24.68ZM86.18 32.2V31.86C86.18 31.72 86.24 31.66 86.38 31.66H87.72C87.86 31.66 87.92 31.72 87.92 31.86V32.2C87.92 32.34 87.86 32.4 87.72 32.4H86.38C86.24 32.4 86.18 32.34 86.18 32.2ZM86.18 29.48V29.18C86.18 29.04 86.24 28.98 86.38 28.98H87.72C87.86 28.98 87.92 29.04 87.92 29.18V29.48C87.92 29.62 87.86 29.68 87.72 29.68H86.38C86.24 29.68 86.18 29.62 86.18 29.48ZM93.92 25.56C93.72 26.58 93.56 28.2 93.46 30.38C93.46 31.26 93.5 32.5 93.56 34.1C93.66 35.08 94.24 35.56 95.28 35.54C96.22 35.48 96.68 34.98 96.66 34.06C96.66 33.74 96.84 32.82 97 32.32C97.18 31.62 97.52 30.74 98.06 29.64C98.56 28.62 99.36 27.9 100.16 27.88C100.74 27.9 101.16 28.34 101.42 29.2C101.68 30.06 101.78 31.2 101.76 32.58C101.78 34.64 101.06 36.06 99.58 36.84C98.74 37.3 97.92 37.52 97.14 37.54C96.26 37.54 95.8 38.02 95.76 39C95.8 39.94 96.28 40.44 97.22 40.48C99.94 40.42 102.36 39.18 103.74 36.8C104.42 35.62 104.76 34.22 104.76 32.58C104.76 27.38 103.34 24.66 100.16 24.74C98.64 24.84 97.58 25.92 96.62 27.98L96.8 25.8C96.9 24.98 96.5 24.5 95.6 24.36C94.7 24.32 94.14 24.72 93.92 25.56ZM115.259 37.3V34.36C115.259 34.22 115.319 34.16 115.459 34.16H121.079C121.219 34.16 121.279 34.22 121.279 34.36V37.3C121.279 37.44 121.219 37.5 121.079 37.5H115.459C115.319 37.5 115.259 37.44 115.259 37.3ZM107.279 35.32C107.279 35.58 107.339 35.8 107.479 35.98C107.739 36.36 108.059 36.64 108.459 36.8C108.659 36.88 108.859 36.92 109.079 36.92C109.279 36.92 109.479 36.88 109.679 36.8C110.579 36.42 111.399 36.04 112.179 35.64C112.219 35.62 112.259 35.62 112.279 35.64C112.319 35.66 112.339 35.68 112.339 35.74V39.42C112.339 39.82 112.479 40.16 112.759 40.44C113.039 40.74 113.379 40.88 113.799 40.88H114.579C114.739 40.88 114.899 40.82 115.059 40.68C115.199 40.54 115.259 40.38 115.259 40.2C115.259 40.14 115.279 40.12 115.339 40.12H121.199C121.259 40.12 121.279 40.14 121.279 40.2C121.279 40.4 121.339 40.56 121.479 40.68C121.619 40.82 121.799 40.9 121.979 40.9H122.779C123.179 40.9 123.539 40.76 123.859 40.46C124.159 40.16 124.299 39.82 124.299 39.4V33.24C124.299 32.76 124.139 32.36 123.799 32.04C123.479 31.7 123.079 31.54 122.599 31.54H117.899C117.879 31.54 117.839 31.52 117.819 31.5C117.799 31.46 117.819 31.42 117.839 31.4C119.379 29.74 120.619 27.88 121.519 25.82C121.579 25.64 121.619 25.48 121.619 25.34C121.619 25.24 121.599 25.1 121.539 24.92C121.419 24.6 121.219 24.38 120.919 24.24L120.319 23.9C120.159 23.82 119.999 23.78 119.819 23.78C119.759 23.78 119.639 23.8 119.479 23.82C119.459 23.84 119.439 23.84 119.379 23.84H115.699C115.639 23.84 115.619 23.82 115.619 23.8C115.599 23.76 115.599 23.72 115.619 23.68C115.739 23.52 115.799 23.34 115.799 23.14C115.799 22.98 115.779 22.84 115.719 22.74C115.559 22.4 115.299 22.18 114.939 22.1L114.819 22.08C114.659 22.04 114.499 22.02 114.359 22.02C114.059 22.02 113.759 22.1 113.419 22.24C112.959 22.48 112.579 22.8 112.319 23.18C111.159 24.8 109.679 26.18 107.859 27.32C107.539 27.52 107.359 27.8 107.319 28.18V28.34C107.319 28.62 107.419 28.9 107.619 29.16C107.919 29.48 108.279 29.68 108.699 29.76C108.839 29.78 108.939 29.8 109.019 29.8C109.319 29.8 109.599 29.72 109.859 29.54L110.419 29.14C110.519 29.06 110.619 29.06 110.739 29.14C111.699 29.94 112.499 30.66 113.159 31.32C113.239 31.42 113.219 31.52 113.119 31.58C111.619 32.66 109.899 33.56 107.999 34.26C107.659 34.38 107.439 34.62 107.319 34.98C107.299 35.06 107.279 35.18 107.279 35.32ZM112.919 27L113.359 26.54C113.459 26.44 113.559 26.4 113.699 26.4H117.739C117.799 26.4 117.819 26.42 117.839 26.46C117.859 26.5 117.859 26.54 117.839 26.58C117.279 27.54 116.599 28.44 115.779 29.3C115.679 29.4 115.599 29.4 115.499 29.32C114.819 28.68 113.959 28 112.939 27.26C112.839 27.18 112.819 27.1 112.919 27ZM133.599 25.6C133.819 24.88 133.459 24.38 132.539 24.12C131.439 23.92 130.739 24.32 130.459 25.32C129.759 27.44 128.819 29 127.679 30.02C127.019 30.7 126.999 31.48 127.659 32.36C128.359 32.9 129.119 32.78 129.899 32.04C130.679 31.3 131.499 30.16 132.379 28.58H136.199C136.899 28.6 137.219 28.94 137.119 29.64C137.059 30.04 136.959 30.42 136.839 30.8H133.319C132.339 30.8 131.839 31.3 131.839 32.3C131.839 33.28 132.339 33.78 133.319 33.78H135.419C135.039 34.32 134.599 34.8 134.099 35.26C132.659 36.54 130.859 37.38 129.719 37.68C128.859 38.02 128.579 38.7 128.859 39.72C129.299 40.62 129.999 40.88 130.939 40.52C133.599 39.58 135.239 38.66 136.919 37C138.579 35.34 139.799 32.58 140.379 29.48C140.759 26.86 139.759 25.58 137.379 25.6H133.599ZM154.888 26.44C155.368 25.66 155.148 25 154.248 24.44C153.288 24.1 152.588 24.26 152.168 24.92C150.728 27.46 148.308 29.82 146.128 31.16C145.088 31.8 144.168 32.28 143.368 32.6C142.548 32.98 142.308 33.74 142.648 34.84C143.068 35.58 143.688 35.76 144.488 35.4C146.228 34.54 147.608 33.68 148.628 32.86V39.36C148.628 40.42 149.148 40.94 150.208 40.94C151.268 40.94 151.787 40.42 151.787 39.36V30.42C153.248 28.74 153.988 27.82 154.888 26.44ZM169.49 23.62C169.49 24.42 168.65 24.8 168.01 24.48C167.67 24.32 167.51 24.04 167.51 23.62C167.51 22.76 168.33 22.42 168.99 22.74C169.33 22.92 169.49 23.2 169.49 23.62ZM158.39 35.78C158.53 38.62 160.21 40.12 163.39 40.26C164.61 40.28 166.37 40.22 168.67 40.04C169.69 39.92 170.17 39.36 170.11 38.36C170.05 37.4 169.51 36.94 168.51 37C166.43 37.14 164.81 37.22 163.63 37.2C162.05 37.12 161.51 36.58 161.45 35.48V30.3H168.45C169.49 30.3 170.01 29.78 170.01 28.72C170.01 27.68 169.49 27.16 168.45 27.16H161.45V26.04C161.45 25.02 160.95 24.52 159.93 24.52H159.91C158.89 24.52 158.39 25.02 158.39 26.04V35.78ZM166.27 23.62C166.27 24.22 166.49 24.74 166.93 25.18C167.35 25.6 167.87 25.82 168.49 25.82C169.71 25.82 170.71 24.84 170.71 23.62C170.71 22.4 169.71 21.4 168.49 21.4C167.87 21.4 167.35 21.62 166.93 22.04C166.49 22.5 166.27 23.02 166.27 23.62ZM172.022 26.54C172.022 27.58 172.542 28.1 173.582 28.1H177.022C178.062 28.1 178.582 27.58 178.582 26.54C178.582 25.5 178.062 24.98 177.022 24.98H173.582C172.542 24.98 172.022 25.5 172.022 26.54ZM172.202 38.84C172.462 39.86 173.042 40.3 173.962 40.12C177.022 39.46 179.002 38.44 180.462 37.04C181.182 36.34 181.922 35.46 182.682 34.4C183.702 32.94 184.402 31.6 184.762 30.36C185.062 29.5 184.782 28.86 183.882 28.44C182.942 28.22 182.302 28.5 181.962 29.32C181.242 31.58 179.622 33.78 177.562 35.38C176.562 36.16 175.202 36.7 173.482 37C172.502 37.18 172.062 37.78 172.202 38.84ZM196.515 24C196.515 24.46 196.755 24.68 197.215 24.68C197.675 24.68 197.895 24.46 197.895 24V22.48C197.895 22.02 197.655 21.8 197.195 21.8C196.735 21.8 196.515 22.02 196.515 22.48V24ZM187.635 32.36C188.335 32.9 189.095 32.78 189.875 32.04C190.655 31.3 191.415 30.32 192.195 29.06H195.775C196.475 29.06 196.795 29.42 196.695 30.12C196.395 32.58 194.695 34.76 192.655 36.18C191.635 36.88 190.675 37.36 189.775 37.6C188.915 37.94 188.635 38.62 188.915 39.64C189.355 40.54 190.055 40.8 190.995 40.44C193.315 39.56 195.035 38.6 196.655 37C198.315 35.34 199.575 32.44 199.955 29.96C200.335 27.38 199.335 26.08 196.955 26.08H193.415C193.735 25.04 193.435 24.38 192.515 24.12C191.415 23.92 190.715 24.32 190.435 25.32C189.735 27.44 188.795 29 187.655 30.02C186.995 30.7 186.975 31.48 187.635 32.36ZM198.675 24C198.675 24.46 198.915 24.68 199.375 24.68C199.835 24.68 200.055 24.46 200.055 24V22.48C200.055 22.02 199.815 21.8 199.355 21.8C198.895 21.8 198.675 22.02 198.675 22.48V24Z" fill="#008AE2"/>
<path d="M71.688 46.016V50.664C71.688 51.056 72.016 51.384 72.408 51.384C72.8 51.384 73.12 51.056 73.12 50.664V49.76L73.768 48.88L75.016 51.048C75.136 51.248 75.36 51.376 75.592 51.376C75.968 51.376 76.264 51.072 76.264 50.712C76.264 50.592 76.232 50.48 76.168 50.368L74.6 47.752L75.824 46.128C76.136 45.728 75.984 45.36 75.432 45.36H75.312C74.984 45.36 74.744 45.472 74.552 45.752L73.144 47.72H73.12V46.016C73.12 45.624 72.8 45.296 72.408 45.296C72.016 45.296 71.688 45.624 71.688 46.016ZM77.8081 53.072C78.5121 53.072 78.9841 52.824 79.3361 52.32C79.5041 52.072 79.6721 51.736 79.8241 51.328L81.1281 47.544C81.1521 47.488 81.1601 47.416 81.1601 47.336C81.1601 46.992 80.8801 46.712 80.5281 46.712C80.2401 46.712 79.9921 46.904 79.9201 47.168L79.5041 48.656C79.3601 49.256 79.2641 49.688 79.2081 49.944H79.1681L79.0641 49.552C78.9521 49.112 78.8721 48.816 78.8161 48.656L78.3361 47.16C78.2481 46.904 78.0001 46.704 77.7121 46.704C77.3521 46.704 77.0561 47 77.0561 47.36C77.0561 47.44 77.0721 47.52 77.1041 47.6L78.5201 51.184L78.4561 51.416C78.3361 51.776 78.0881 51.96 77.6961 51.96C77.4081 51.984 77.1761 52.224 77.1761 52.52C77.1761 52.832 77.4161 53.064 77.7281 53.072H77.8081ZM84.0442 51.432C84.8202 51.432 85.5482 51.04 85.9642 50.312C86.1642 49.952 86.2682 49.528 86.2682 49.04C86.2682 48.072 85.8202 47.328 85.1402 46.944C84.7962 46.752 84.4362 46.656 84.0442 46.656C83.2522 46.656 82.5322 47.048 82.1242 47.768C81.9162 48.128 81.8122 48.552 81.8122 49.04C81.8122 50.008 82.2602 50.76 82.9402 51.144C83.2842 51.336 83.6522 51.432 84.0442 51.432ZM83.2682 49.04C83.2682 48.264 83.5242 47.808 84.0442 47.808C84.5562 47.808 84.8122 48.264 84.8122 49.04C84.8122 49.816 84.5562 50.28 84.0442 50.28C83.5242 50.28 83.2682 49.832 83.2682 49.04ZM88.9539 51.432C89.1619 51.432 89.3459 51.416 89.5059 51.384C89.7619 51.328 89.9459 51.112 89.9459 50.856C89.9459 50.544 89.6819 50.312 89.3859 50.32H89.3459C88.9939 50.32 88.7699 50.096 88.7699 49.616V47.88H89.3459C89.6579 47.88 89.9059 47.632 89.9059 47.32C89.9059 47.024 89.6579 46.768 89.3459 46.768H88.7699V46.12C88.7699 45.776 88.4899 45.496 88.1459 45.496C87.8339 45.496 87.5699 45.728 87.5299 46.04L87.4339 46.768L87.1699 46.792C86.8899 46.816 86.6659 47.048 86.6659 47.336C86.6659 47.632 86.9219 47.88 87.2179 47.88H87.3459V49.632C87.3459 50.76 87.8579 51.432 88.9539 51.432ZM92.7004 51.432C93.4764 51.432 94.2044 51.04 94.6204 50.312C94.8204 49.952 94.9244 49.528 94.9244 49.04C94.9244 48.072 94.4764 47.328 93.7964 46.944C93.4524 46.752 93.0924 46.656 92.7004 46.656C91.9084 46.656 91.1884 47.048 90.7804 47.768C90.5724 48.128 90.4684 48.552 90.4684 49.04C90.4684 50.008 90.9164 50.76 91.5964 51.144C91.9404 51.336 92.3084 51.432 92.7004 51.432ZM91.9244 49.04C91.9244 48.264 92.1804 47.808 92.7004 47.808C93.2124 47.808 93.4684 48.264 93.4684 49.04C93.4684 49.816 93.2124 50.28 92.7004 50.28C92.1804 50.28 91.9244 49.832 91.9244 49.04ZM95.5862 49C95.5862 49.28 95.8022 49.504 96.0822 49.504H97.4662C97.7462 49.504 97.9702 49.28 97.9702 49C97.9702 48.736 97.7462 48.504 97.4662 48.504H96.0822C95.8182 48.504 95.5862 48.72 95.5862 49ZM100.673 51.432C100.881 51.432 101.065 51.416 101.225 51.384C101.481 51.328 101.665 51.112 101.665 50.856C101.665 50.544 101.401 50.312 101.105 50.32H101.065C100.713 50.32 100.489 50.096 100.489 49.616V47.88H101.065C101.377 47.88 101.625 47.632 101.625 47.32C101.625 47.024 101.377 46.768 101.065 46.768H100.489V46.12C100.489 45.776 100.209 45.496 99.8647 45.496C99.5527 45.496 99.2887 45.728 99.2487 46.04L99.1527 46.768L98.8887 46.792C98.6087 46.816 98.3847 47.048 98.3847 47.336C98.3847 47.632 98.6407 47.88 98.9367 47.88H99.0647V49.632C99.0647 50.76 99.5767 51.432 100.673 51.432ZM104.419 51.432C105.195 51.432 105.923 51.04 106.339 50.312C106.539 49.952 106.643 49.528 106.643 49.04C106.643 48.072 106.195 47.328 105.515 46.944C105.171 46.752 104.811 46.656 104.419 46.656C103.627 46.656 102.907 47.048 102.499 47.768C102.291 48.128 102.187 48.552 102.187 49.04C102.187 50.008 102.635 50.76 103.315 51.144C103.659 51.336 104.027 51.432 104.419 51.432ZM103.643 49.04C103.643 48.264 103.899 47.808 104.419 47.808C104.931 47.808 105.187 48.264 105.187 49.04C105.187 49.816 104.931 50.28 104.419 50.28C103.899 50.28 103.643 49.832 103.643 49.04ZM107.537 47.32V50.664C107.537 51.056 107.857 51.384 108.249 51.384C108.641 51.384 108.961 51.056 108.961 50.664V48.72C109.177 48.168 109.561 47.904 109.937 47.904H109.985C110.337 47.912 110.633 47.624 110.633 47.272C110.633 47.112 110.577 46.968 110.457 46.84C110.281 46.656 110.041 46.616 109.745 46.72C109.377 46.848 109.073 47.128 108.825 47.56H108.801L108.761 47.24C108.721 46.944 108.465 46.704 108.153 46.704C107.809 46.704 107.537 46.976 107.537 47.32ZM111.248 47.416V50.664C111.248 51.056 111.568 51.384 111.96 51.384C112.352 51.384 112.672 51.056 112.672 50.664V47.416C112.672 47.024 112.352 46.704 111.96 46.704C111.568 46.704 111.248 47.024 111.248 47.416ZM111.168 45.4C111.168 45.848 111.48 46.136 111.96 46.136C112.432 46.136 112.752 45.848 112.752 45.4C112.752 44.96 112.432 44.672 111.96 44.672C111.48 44.672 111.168 44.96 111.168 45.4ZM113.818 47.336V50.664C113.818 51.056 114.138 51.384 114.53 51.384C114.922 51.384 115.242 51.056 115.242 50.664V48.28C115.498 48.008 115.738 47.872 115.962 47.872C116.338 47.872 116.49 48.072 116.49 48.68V50.664C116.49 51.056 116.81 51.384 117.202 51.384C117.594 51.384 117.914 51.056 117.914 50.664V48.28C118.178 48.008 118.426 47.872 118.642 47.872C119.018 47.872 119.162 48.064 119.162 48.68V50.664C119.162 51.056 119.482 51.384 119.874 51.384C120.266 51.384 120.586 51.056 120.586 50.664V48.504C120.586 47.328 120.122 46.656 119.162 46.656C118.61 46.656 118.21 46.928 117.738 47.408C117.506 46.904 117.106 46.656 116.49 46.656C115.922 46.656 115.554 46.896 115.106 47.344H115.082L115.058 47.224C115.002 46.936 114.754 46.704 114.442 46.704C114.098 46.704 113.818 46.992 113.818 47.336ZM123.765 51.432C124.165 51.432 124.565 51.336 124.973 51.152C125.141 51.064 125.269 50.888 125.269 50.696C125.269 50.416 125.037 50.184 124.757 50.184C124.701 50.184 124.637 50.2 124.573 50.224C124.365 50.304 124.157 50.344 123.957 50.344C123.357 50.344 122.949 50.064 122.821 49.464H124.901C125.309 49.464 125.557 49.256 125.557 48.872V48.848C125.557 47.528 124.853 46.656 123.605 46.656C122.861 46.656 122.157 47.064 121.749 47.784C121.549 48.144 121.445 48.568 121.445 49.04C121.445 50.48 122.381 51.432 123.765 51.432ZM122.797 48.528C122.893 48.016 123.213 47.744 123.629 47.744C124.117 47.744 124.349 48.048 124.349 48.528H122.797ZM126.467 47.416V50.664C126.467 51.056 126.787 51.384 127.179 51.384C127.571 51.384 127.891 51.056 127.891 50.664V47.416C127.891 47.024 127.571 46.704 127.179 46.704C126.787 46.704 126.467 47.024 126.467 47.416ZM126.387 45.4C126.387 45.848 126.699 46.136 127.179 46.136C127.651 46.136 127.971 45.848 127.971 45.4C127.971 44.96 127.651 44.672 127.179 44.672C126.699 44.672 126.387 44.96 126.387 45.4ZM128.805 49C128.805 49.28 129.021 49.504 129.301 49.504H130.685C130.965 49.504 131.189 49.28 131.189 49C131.189 48.736 130.965 48.504 130.685 48.504H129.301C129.037 48.504 128.805 48.72 128.805 49ZM133.891 51.432C134.099 51.432 134.283 51.416 134.443 51.384C134.699 51.328 134.883 51.112 134.883 50.856C134.883 50.544 134.619 50.312 134.323 50.32H134.283C133.931 50.32 133.707 50.096 133.707 49.616V47.88H134.283C134.595 47.88 134.843 47.632 134.843 47.32C134.843 47.024 134.595 46.768 134.283 46.768H133.707V46.12C133.707 45.776 133.427 45.496 133.083 45.496C132.771 45.496 132.507 45.728 132.467 46.04L132.371 46.768L132.107 46.792C131.827 46.816 131.603 47.048 131.603 47.336C131.603 47.632 131.859 47.88 132.155 47.88H132.283V49.632C132.283 50.76 132.795 51.432 133.891 51.432ZM136.23 53.072C136.934 53.072 137.406 52.824 137.758 52.32C137.926 52.072 138.094 51.736 138.246 51.328L139.55 47.544C139.574 47.488 139.582 47.416 139.582 47.336C139.582 46.992 139.302 46.712 138.95 46.712C138.662 46.712 138.414 46.904 138.342 47.168L137.926 48.656C137.782 49.256 137.686 49.688 137.63 49.944H137.59L137.486 49.552C137.374 49.112 137.294 48.816 137.238 48.656L136.758 47.16C136.67 46.904 136.422 46.704 136.134 46.704C135.774 46.704 135.478 47 135.478 47.36C135.478 47.44 135.494 47.52 135.526 47.6L136.942 51.184L136.878 51.416C136.758 51.776 136.51 51.96 136.118 51.96C135.83 51.984 135.598 52.224 135.598 52.52C135.598 52.832 135.838 53.064 136.15 53.072H136.23ZM140.49 47.344V52.304C140.49 52.712 140.818 53.04 141.226 53.04C141.418 53.04 141.586 52.984 141.722 52.88C141.946 52.712 141.97 52.512 141.946 52.136L141.866 50.96C142.178 51.272 142.53 51.432 142.922 51.432C143.586 51.432 144.21 51.024 144.57 50.28C144.746 49.904 144.834 49.472 144.834 48.968C144.834 47.528 144.114 46.656 143.058 46.656C142.61 46.656 142.162 46.864 141.778 47.208H141.754V47.2C141.69 46.912 141.442 46.712 141.13 46.712C140.778 46.712 140.49 46.992 140.49 47.344ZM141.914 50V48.2C142.162 47.936 142.37 47.816 142.634 47.816C143.138 47.816 143.37 48.192 143.37 48.992C143.37 49.856 143.058 50.264 142.586 50.264C142.338 50.264 142.114 50.176 141.914 50ZM145.756 47.416V50.664C145.756 51.056 146.076 51.384 146.468 51.384C146.86 51.384 147.18 51.056 147.18 50.664V47.416C147.18 47.024 146.86 46.704 146.468 46.704C146.076 46.704 145.756 47.024 145.756 47.416ZM145.676 45.4C145.676 45.848 145.988 46.136 146.468 46.136C146.94 46.136 147.26 45.848 147.26 45.4C147.26 44.96 146.94 44.672 146.468 44.672C145.988 44.672 145.676 44.96 145.676 45.4ZM148.326 47.336V50.664C148.326 51.056 148.646 51.384 149.038 51.384C149.43 51.384 149.75 51.056 149.75 50.664V48.28C150.046 47.992 150.238 47.872 150.534 47.872C150.91 47.872 151.062 48.072 151.062 48.68V50.664C151.062 51.056 151.382 51.384 151.774 51.384C152.166 51.384 152.486 51.056 152.486 50.664V48.504C152.486 47.328 152.03 46.656 151.07 46.656C150.502 46.656 150.038 46.92 149.614 47.336H149.59L149.566 47.224C149.51 46.936 149.262 46.712 148.95 46.712C148.606 46.712 148.326 46.992 148.326 47.336ZM155.224 53.232C156.832 53.232 157.808 52.536 157.808 51.592C157.808 50.792 157.2 50.424 156.048 50.424H155.328C155.088 50.424 154.92 50.4 154.816 50.352C154.712 50.304 154.656 50.224 154.656 50.12C154.656 49.968 154.696 49.904 154.8 49.8C154.992 49.856 155.168 49.88 155.336 49.88C156.416 49.88 157.152 49.368 157.152 48.352C157.152 48.144 157.112 47.96 157.032 47.8H157.272C157.552 47.8 157.792 47.568 157.792 47.28C157.792 47 157.552 46.768 157.272 46.768H156.056C155.84 46.696 155.6 46.656 155.336 46.656C154.248 46.656 153.432 47.28 153.432 48.304C153.432 48.808 153.704 49.24 154.056 49.488V49.52C153.744 49.736 153.544 50.056 153.544 50.368C153.544 50.704 153.68 50.968 153.96 51.152V51.192C153.536 51.408 153.32 51.712 153.32 52.088C153.32 52.856 154.096 53.232 155.224 53.232ZM154.488 51.864C154.488 51.712 154.56 51.576 154.696 51.456C154.832 51.496 155.048 51.512 155.344 51.512H155.776C156.232 51.512 156.44 51.584 156.44 51.84C156.44 52.128 156.024 52.344 155.448 52.344C154.864 52.344 154.488 52.176 154.488 51.864ZM154.76 48.304C154.76 47.864 154.992 47.608 155.336 47.608C155.688 47.608 155.92 47.856 155.92 48.304C155.92 48.776 155.688 49.024 155.336 49.024C154.992 49.024 154.76 48.76 154.76 48.304Z" fill="#008AE2"/>
</svg>
