<svg width="230" height="68" viewBox="0 0 230 68" fill="none" xmlns="http://www.w3.org/2000/svg">
<path d="M0.318845 34.5216C0.123119 34.2014 0.123119 33.7986 0.318845 33.4784L16.1468 7.58666C16.6735 6.72503 18 7.09836 18 8.10823L18 59.8918C18 60.9016 16.6735 61.275 16.1468 60.4133L0.318845 34.5216Z" fill="#C4C4C4"/>
<path d="M229.681 33.4784C229.877 33.7986 229.877 34.2014 229.681 34.5216L213.853 60.4133C213.326 61.275 212 60.9016 212 59.8918V8.10823C212 7.09835 213.326 6.72503 213.853 7.58666L229.681 33.4784Z" fill="#C4C4C4"/>
<rect x="17" y="7" width="196" height="54" fill="#C4C4C4"/>
<rect x="15" y="9" width="200" height="50" rx="6" fill="#008AE2"/>
<rect x="24" y="14" width="180" height="40" rx="5" fill="white"/>
<path d="M19.098 34.3054C19.0343 34.1068 19.0343 33.8932 19.098 33.6946L24.5478 16.7037C24.8963 15.6173 26.5 15.8682 26.5 17.0091L26.5 50.9909C26.5 52.1318 24.8963 52.3827 24.5478 51.2963L19.098 34.3054Z" fill="white"/>
<path d="M208.902 33.6946C208.966 33.8932 208.966 34.1068 208.902 34.3054L203.452 51.2963C203.104 52.3827 201.5 52.1318 201.5 50.9909V17.0091C201.5 15.8682 203.104 15.6173 203.452 16.7037L208.902 33.6946Z" fill="white"/>
<path d="M3.28868 34.5C3.11004 34.1906 3.11004 33.8094 3.28868 33.5L16.134 11.2513C16.6455 10.3653 18 10.7282 18 11.7513L18 56.2487C18 57.2718 16.6455 57.6347 16.134 56.7487L3.28868 34.5Z" fill="#008AE2"/>
<path d="M226.711 33.5C226.89 33.8094 226.89 34.1906 226.711 34.5L213.866 56.7487C213.354 57.6347 212 57.2718 212 56.2487V11.7513C212 10.7282 213.354 10.3653 213.866 11.2513L226.711 33.5Z" fill="#008AE2"/>
<path d="M110.8 33.54V35.34C110.8 35.48 110.74 35.54 110.6 35.54H107.26C107.14 35.54 107.08 35.48 107.08 35.34V33.54C107.08 33.4 107.14 33.34 107.26 33.34H110.6C110.74 33.34 110.8 33.4 110.8 33.54ZM95.5 29.76L95.52 29.9C95.56 30.24 95.72 30.52 95.98 30.74C96.2 30.96 96.48 31.06 96.8 31.06L96.9 31.04L98.26 30.94C98.32 30.94 98.36 30.96 98.4 31C98.44 31.04 98.46 31.08 98.46 31.14V32.06C98.46 32.12 98.44 32.16 98.4 32.18C98.36 32.22 98.32 32.24 98.26 32.24L97.8 32.14C97.7 32.12 97.6 32.12 97.5 32.12C97.16 32.12 96.86 32.22 96.58 32.42C96.2 32.7 96 33.06 95.94 33.52C95.84 34.2 95.72 34.8 95.58 35.32C95.56 35.5 95.54 35.64 95.54 35.7C95.54 35.88 95.58 36.08 95.66 36.26C95.8 36.58 96 36.8 96.3 36.94C96.46 37.02 96.62 37.06 96.8 37.06C96.94 37.06 97.08 37.04 97.18 36.98C97.48 36.86 97.68 36.66 97.78 36.36C98.08 35.32 98.3 34.16 98.44 32.9V32.88C98.46 32.88 98.46 32.88 98.46 32.9V37.62C98.46 37.98 98.58 38.28 98.84 38.52C99.1 38.78 99.4 38.9 99.74 38.9C100.1 38.9 100.4 38.78 100.64 38.52C100.9 38.28 101.02 37.98 101.02 37.62V33.58C101.02 33.56 101.02 33.54 101.04 33.54C101.06 33.54 101.08 33.54 101.08 33.56C101.3 34.22 101.44 34.74 101.54 35.12C101.64 35.44 101.82 35.66 102.08 35.8C102.22 35.9 102.4 35.94 102.58 35.94C102.72 35.94 102.84 35.92 102.94 35.86C103.26 35.74 103.5 35.54 103.66 35.24C103.76 35.06 103.8 34.88 103.8 34.68C103.8 34.62 103.78 34.48 103.76 34.3L103.4 33.26C103.24 32.82 102.94 32.5 102.52 32.3C102.28 32.18 102.04 32.12 101.78 32.12C101.56 32.12 101.36 32.16 101.22 32.22C101.16 32.22 101.1 32.22 101.08 32.2C101.04 32.16 101.02 32.12 101.02 32.08V30.92C101.02 30.8 101.08 30.74 101.22 30.74L101.7 30.7C101.76 30.68 101.8 30.72 101.84 30.78C101.88 31 102.02 31.18 102.24 31.28C102.38 31.34 102.48 31.38 102.58 31.38C102.62 31.38 102.72 31.36 102.88 31.3L103.12 31.18C103.44 31.04 103.68 30.82 103.82 30.5C103.92 30.32 103.96 30.14 103.96 29.94C103.96 29.78 103.94 29.64 103.88 29.54C103.88 29.52 103.88 29.5 103.86 29.48C103.86 29.42 103.86 29.4 103.88 29.38C103.9 29.36 103.94 29.34 103.96 29.34H112.68C113.04 29.34 113.34 29.22 113.6 28.96C113.86 28.7 113.98 28.4 113.98 28.04C113.98 27.66 113.86 27.36 113.6 27.1C113.32 26.84 113.02 26.72 112.68 26.72H110.44C110.32 26.72 110.26 26.66 110.26 26.54V25.18C110.26 25.04 110.32 24.98 110.44 24.98H113.14C113.52 24.98 113.82 24.86 114.08 24.6C114.34 24.32 114.46 24 114.46 23.66C114.46 23.32 114.34 23.02 114.08 22.74C113.82 22.48 113.52 22.36 113.14 22.36H110.44C110.32 22.36 110.26 22.3 110.26 22.16V21.38C110.26 20.96 110.12 20.62 109.82 20.34C109.54 20.04 109.2 19.9 108.78 19.9C108.36 19.9 108.02 20.04 107.74 20.34C107.44 20.62 107.3 20.96 107.3 21.38V22.16C107.3 22.3 107.24 22.36 107.1 22.36H104.58C104.22 22.36 103.92 22.48 103.66 22.74C103.4 23 103.28 23.3 103.28 23.66C103.28 24.04 103.4 24.34 103.66 24.6C103.92 24.86 104.22 24.98 104.58 24.98H107.1C107.24 24.98 107.3 25.04 107.3 25.18V26.54C107.3 26.66 107.24 26.72 107.1 26.72H105.5C105.06 26.72 104.66 26.88 104.3 27.22C103.96 27.58 103.8 27.98 103.8 28.42V29.08C103.8 29.1 103.8 29.12 103.78 29.12C103.76 29.12 103.74 29.1 103.74 29.08L103.22 27.9C103.02 27.46 102.68 27.16 102.22 27C102 26.94 101.8 26.9 101.62 26.9C101.38 26.9 101.14 26.96 100.88 27.06L100.76 27.12C100.74 27.14 100.72 27.12 100.7 27.1C100.68 27.08 100.68 27.06 100.7 27.04C101.24 26.32 101.86 25.46 102.52 24.44C102.66 24.22 102.72 24.02 102.72 23.86C102.72 23.76 102.7 23.64 102.66 23.52C102.56 23.2 102.36 22.98 102.04 22.84C101.84 22.78 101.66 22.74 101.5 22.74C101.32 22.74 101.16 22.76 101.02 22.82C100.64 22.96 100.38 23.2 100.24 23.52L99.24 25.26C99.22 25.3 99.2 25.32 99.14 25.32C99.08 25.32 99.04 25.3 99.02 25.26L98.92 25.16L98.84 25.04C98.76 24.96 98.76 24.86 98.82 24.74C99.06 24.34 99.58 23.42 100.38 22C100.46 21.82 100.5 21.64 100.5 21.46C100.5 21.28 100.48 21.14 100.42 21.02C100.28 20.7 100.04 20.48 99.72 20.36C99.6 20.3 99.46 20.28 99.28 20.28C99.08 20.28 98.88 20.34 98.7 20.44C98.36 20.6 98.14 20.86 98 21.2C97.76 21.88 97.48 22.56 97.16 23.24C97.16 23.26 97.16 23.26 97.14 23.26C97.12 23.26 97.1 23.26 97.08 23.24C96.98 23.18 96.88 23.14 96.76 23.16C96.64 23.16 96.54 23.22 96.48 23.32L96.08 23.96C95.9 24.18 95.82 24.46 95.82 24.76L95.84 24.92C95.86 25.26 96 25.56 96.26 25.82C96.82 26.48 97.26 27.02 97.58 27.48C97.64 27.6 97.64 27.7 97.56 27.8C97.3 28.16 97.14 28.38 97.08 28.44C97.02 28.54 96.94 28.58 96.82 28.58L96.66 28.6C96.32 28.62 96.02 28.76 95.8 29C95.6 29.22 95.5 29.46 95.5 29.76ZM99.7 28.42C99.68 28.38 99.68 28.34 99.7 28.32L100.06 27.88C100.16 27.74 100.26 27.6 100.36 27.48C100.38 27.46 100.42 27.44 100.46 27.44C100.52 27.44 100.54 27.46 100.54 27.5L100.88 28.24C100.9 28.28 100.9 28.32 100.88 28.36C100.86 28.4 100.82 28.42 100.76 28.42L99.76 28.46L99.7 28.42ZM104.42 37.54C104.42 37.92 104.54 38.22 104.8 38.48C105.06 38.74 105.38 38.88 105.74 38.88H106.4C106.56 38.88 106.72 38.82 106.88 38.68C107.02 38.52 107.08 38.36 107.08 38.2C107.08 38.14 107.1 38.12 107.16 38.12H110.72C110.78 38.12 110.8 38.14 110.8 38.2C110.8 38.38 110.86 38.54 111 38.68C111.14 38.82 111.3 38.88 111.48 38.88H112.2C112.6 38.88 112.92 38.74 113.18 38.46C113.46 38.2 113.6 37.88 113.6 37.48V32.46C113.6 32 113.44 31.6 113.1 31.26C112.74 30.92 112.34 30.76 111.9 30.76H106.12C105.66 30.76 105.26 30.92 104.92 31.26C104.58 31.58 104.42 31.98 104.42 32.46V37.54ZM121 26.88V26.44C121 26.3 121.06 26.24 121.2 26.24H123.32C123.46 26.24 123.52 26.3 123.52 26.44V26.88C123.52 27.02 123.46 27.08 123.32 27.08H121.2C121.06 27.08 121 27.02 121 26.88ZM115.98 31.7C115.98 32.08 116.1 32.38 116.36 32.64C116.64 32.9 116.96 33.02 117.3 33.02H121.24C121.26 33.02 121.28 33.04 121.28 33.06C121.3 33.1 121.28 33.12 121.26 33.14C120 34.08 118.5 34.88 116.8 35.54C116.46 35.66 116.24 35.9 116.16 36.24C116.14 36.3 116.12 36.4 116.12 36.54C116.12 36.76 116.2 36.98 116.36 37.18C116.66 37.52 117.02 37.78 117.44 37.92C117.6 37.98 117.78 38 117.96 38C118.22 38 118.46 37.94 118.72 37.84C120.46 37.04 122 36 123.38 34.74C123.4 34.7 123.44 34.7 123.46 34.72C123.5 34.72 123.52 34.74 123.52 34.8V37.36C123.52 37.78 123.68 38.14 123.98 38.44C124.28 38.74 124.64 38.9 125.06 38.9C125.48 38.9 125.86 38.74 126.16 38.44C126.46 38.14 126.62 37.78 126.62 37.36V34.68C126.62 34.66 126.64 34.62 126.66 34.6C126.7 34.58 126.74 34.6 126.76 34.62C128.12 35.84 129.62 36.86 131.28 37.66C131.54 37.78 131.8 37.84 132.06 37.84C132.24 37.84 132.4 37.82 132.56 37.76C132.98 37.64 133.36 37.4 133.66 37.02C133.8 36.8 133.88 36.58 133.88 36.36C133.88 36.22 133.86 36.12 133.84 36.06C133.76 35.72 133.54 35.48 133.2 35.34C131.64 34.76 130.22 34.04 128.92 33.14C128.9 33.12 128.88 33.08 128.9 33.06C128.9 33.04 128.92 33.02 128.96 33.02H132.76C133.1 33.02 133.42 32.9 133.7 32.64C133.96 32.38 134.08 32.08 134.08 31.7C134.08 31.32 133.96 31.02 133.7 30.76C133.44 30.5 133.14 30.38 132.76 30.38H126.82C126.68 30.38 126.62 30.32 126.62 30.18V29.68C126.62 29.54 126.68 29.48 126.82 29.48H130.52C131 29.48 131.4 29.32 131.72 28.98C132.06 28.66 132.22 28.26 132.22 27.78V22.5C132.22 22.04 132.06 21.64 131.72 21.3C131.38 20.96 130.98 20.8 130.52 20.8H119.66C119.22 20.8 118.82 20.96 118.46 21.3C118.12 21.66 117.96 22.06 117.96 22.5V27.78C117.96 28.24 118.12 28.64 118.46 28.98C118.8 29.32 119.2 29.48 119.66 29.48H123.32C123.46 29.48 123.52 29.54 123.52 29.68V30.18C123.52 30.32 123.46 30.38 123.32 30.38H117.3C116.92 30.38 116.62 30.5 116.36 30.76C116.1 31.02 115.98 31.32 115.98 31.7ZM121 23.82V23.38C121 23.26 121.06 23.2 121.2 23.2H123.32C123.46 23.2 123.52 23.26 123.52 23.38V23.82C123.52 23.96 123.46 24.02 123.32 24.02H121.2C121.06 24.02 121 23.96 121 23.82ZM126.62 26.88V26.44C126.62 26.3 126.68 26.24 126.82 26.24H128.82C128.96 26.24 129.02 26.3 129.02 26.44V26.88C129.02 27.02 128.96 27.08 128.82 27.08H126.82C126.68 27.08 126.62 27.02 126.62 26.88ZM126.62 23.82V23.38C126.62 23.26 126.68 23.2 126.82 23.2H128.82C128.96 23.2 129.02 23.26 129.02 23.38V23.82C129.02 23.96 128.96 24.02 128.82 24.02H126.82C126.68 24.02 126.62 23.96 126.62 23.82Z" fill="#008AE2"/>
<path d="M102.576 45.32V48.664C102.576 49.056 102.896 49.384 103.288 49.384C103.68 49.384 104 49.056 104 48.664V46.72C104.216 46.168 104.6 45.904 104.976 45.904H105.024C105.376 45.912 105.672 45.624 105.672 45.272C105.672 45.112 105.616 44.968 105.496 44.84C105.32 44.656 105.08 44.616 104.784 44.72C104.416 44.848 104.112 45.128 103.864 45.56H103.84L103.8 45.24C103.76 44.944 103.504 44.704 103.192 44.704C102.848 44.704 102.576 44.976 102.576 45.32ZM108.351 49.432C108.751 49.432 109.151 49.336 109.559 49.152C109.727 49.064 109.855 48.888 109.855 48.696C109.855 48.416 109.623 48.184 109.343 48.184C109.287 48.184 109.223 48.2 109.159 48.224C108.951 48.304 108.743 48.344 108.543 48.344C107.943 48.344 107.535 48.064 107.407 47.464H109.487C109.895 47.464 110.143 47.256 110.143 46.872V46.848C110.143 45.528 109.439 44.656 108.191 44.656C107.447 44.656 106.743 45.064 106.335 45.784C106.135 46.144 106.031 46.568 106.031 47.04C106.031 48.48 106.967 49.432 108.351 49.432ZM107.383 46.528C107.479 46.016 107.799 45.744 108.215 45.744C108.703 45.744 108.935 46.048 108.935 46.528H107.383ZM112.413 49.432C113.637 49.432 114.309 48.792 114.309 47.944C114.309 47.208 113.837 46.856 113.109 46.576C112.605 46.4 112.245 46.288 112.245 46.032C112.245 45.816 112.405 45.704 112.725 45.704C112.909 45.704 113.109 45.76 113.333 45.88C113.405 45.92 113.493 45.944 113.581 45.944C113.877 45.944 114.117 45.704 114.117 45.416C114.117 45.216 113.997 45.032 113.829 44.944C113.469 44.752 113.085 44.656 112.677 44.656C111.589 44.656 110.917 45.264 110.917 46.096C110.917 46.776 111.405 47.176 112.077 47.44L112.253 47.512C112.501 47.6 112.685 47.68 112.805 47.752C112.925 47.824 112.981 47.92 112.981 48.024C112.981 48.264 112.805 48.384 112.445 48.384C112.197 48.384 111.933 48.304 111.653 48.136C111.557 48.088 111.469 48.064 111.381 48.064C111.085 48.064 110.837 48.312 110.837 48.608C110.837 48.824 110.965 49 111.133 49.096C111.541 49.312 112.005 49.432 112.413 49.432ZM116.507 49.432C117.091 49.432 117.515 49.176 117.923 48.696H117.955L117.979 48.856C118.035 49.144 118.299 49.376 118.595 49.376C118.939 49.376 119.219 49.104 119.219 48.76V45.416C119.219 45.024 118.899 44.704 118.507 44.704C118.115 44.704 117.795 45.024 117.795 45.416V47.752C117.547 48.096 117.355 48.216 117.035 48.216C116.659 48.216 116.507 48.016 116.507 47.408V45.416C116.507 45.024 116.187 44.704 115.795 44.704C115.403 44.704 115.083 45.024 115.083 45.416V47.584C115.083 48.76 115.539 49.432 116.507 49.432ZM121.661 49.432C121.733 49.432 121.789 49.432 121.829 49.424C122.117 49.4 122.349 49.16 122.349 48.864C122.349 48.616 122.229 48.368 122.037 48.28C121.901 48.28 121.789 48.168 121.789 47.888V43.576C121.789 43.184 121.469 42.864 121.077 42.864C120.685 42.864 120.365 43.184 120.365 43.576V47.84C120.365 48.856 120.733 49.432 121.661 49.432ZM124.813 49.432C125.021 49.432 125.205 49.416 125.365 49.384C125.621 49.328 125.805 49.112 125.805 48.856C125.805 48.544 125.541 48.312 125.245 48.32H125.205C124.853 48.32 124.629 48.096 124.629 47.616V45.88H125.205C125.517 45.88 125.765 45.632 125.765 45.32C125.765 45.024 125.517 44.768 125.205 44.768H124.629V44.12C124.629 43.776 124.349 43.496 124.005 43.496C123.693 43.496 123.429 43.728 123.389 44.04L123.293 44.768L123.029 44.792C122.749 44.816 122.525 45.048 122.525 45.336C122.525 45.632 122.781 45.88 123.077 45.88H123.205V47.632C123.205 48.76 123.717 49.432 124.813 49.432Z" fill="#008AE2"/>
</svg>
