<svg width="153" height="19" viewBox="0 0 153 19" fill="none" xmlns="http://www.w3.org/2000/svg">
<path d="M1.58969 3.46C1.58969 4.52 2.12969 5.06 3.18969 5.06H8.10969C8.56969 5.06 8.70969 5.3 8.56969 5.78C7.04969 9.4 4.38969 12.54 1.44969 13.92C0.669688 14.42 0.489688 15.18 0.889688 16.24C1.44969 17.02 2.16969 17.16 3.04969 16.64C4.86969 15.54 6.56969 14.04 8.10969 12.14C9.76969 14.38 10.9497 15.78 11.6297 16.36C12.1897 17 12.8497 17.1 13.6297 16.64C14.2897 15.94 14.3097 15.18 13.6897 14.32C12.6697 13.22 11.3897 11.7 9.88969 9.72C10.5897 8.66 11.2297 7.36 11.8497 5.84C12.5497 4.46 12.3497 3.1 11.4697 2.36C11.0297 1.98 10.4697 1.82 9.80969 1.84H3.18969C2.12969 1.84 1.58969 2.38 1.58969 3.44V3.46ZM28.533 3.9C28.533 4.7 27.693 5.08 27.053 4.76C26.713 4.6 26.553 4.32 26.553 3.9C26.553 3.04 27.373 2.7 28.033 3.02C28.373 3.2 28.533 3.48 28.533 3.9ZM15.833 9.5C15.433 10.32 15.533 11.02 16.153 11.6C17.073 12.08 17.773 11.92 18.233 11.14L19.873 8.14C20.213 7.52 20.453 7.12 20.573 6.94C20.913 6.32 20.893 6.06 21.353 6.96L26.233 15.26C26.873 16.2 27.613 16.42 28.473 15.92C29.293 15.2 29.393 14.38 28.773 13.46C27.193 10.72 25.473 7.8 23.573 4.7L22.633 3.12C22.073 2.32 21.453 2.16 20.633 2.24C20.153 2.3 19.593 2.66 19.133 3.4C18.713 4.12 17.613 6.16 15.833 9.5ZM25.313 3.9C25.313 4.5 25.533 5.02 25.973 5.46C26.393 5.88 26.913 6.1 27.533 6.1C28.753 6.1 29.753 5.12 29.753 3.9C29.753 2.68 28.753 1.68 27.533 1.68C26.913 1.68 26.393 1.9 25.973 2.32C25.533 2.78 25.313 3.3 25.313 3.9ZM31.2422 10.08C31.2422 11.12 31.7622 11.64 32.8022 11.64H38.9222C39.9622 11.64 40.4822 11.12 40.4822 10.06C40.4822 9.02 39.9622 8.5 38.9222 8.5H32.8022C31.7622 8.5 31.2422 9.02 31.2422 10.06V10.08ZM43.0936 3.46C43.0936 4.52 43.6336 5.06 44.6936 5.06H49.6136C50.0736 5.06 50.2136 5.3 50.0736 5.78C48.5536 9.4 45.8936 12.54 42.9536 13.92C42.1736 14.42 41.9936 15.18 42.3936 16.24C42.9536 17.02 43.6736 17.16 44.5536 16.64C46.3736 15.54 48.0736 14.04 49.6136 12.14C51.2736 14.38 52.4536 15.78 53.1336 16.36C53.6936 17 54.3536 17.1 55.1336 16.64C55.7936 15.94 55.8136 15.18 55.1936 14.32C54.1736 13.22 52.8936 11.7 51.3936 9.72C52.0936 8.66 52.7336 7.36 53.3536 5.84C54.0536 4.46 53.8536 3.1 52.9736 2.36C52.5336 1.98 51.9736 1.82 51.3136 1.84H44.6936C43.6336 1.84 43.0936 2.38 43.0936 3.44V3.46ZM57.2769 5.34C57.2769 6.36 57.7769 6.86 58.7969 6.86H62.2569L62.4369 9.54H58.8369C57.7969 9.54 57.2769 10.06 57.2769 11.12C57.2769 12.16 57.7969 12.68 58.8369 12.68H62.6569L62.9369 16.54C62.9969 17.56 63.5569 18.04 64.5969 17.98C65.6369 17.9 66.1169 17.34 66.0369 16.32L65.7769 12.68H69.1169C70.1569 12.68 70.6769 12.16 70.6769 11.12V11.1C70.6769 10.06 70.1569 9.54 69.1169 9.54H65.5569L65.3769 6.86H69.1569C70.1769 6.86 70.6769 6.34 70.6769 5.32C70.6769 4.3 70.1769 3.8 69.1569 3.8H65.1569L65.0569 2.46C64.9969 1.44 64.4369 0.959999 63.3969 1.02C62.3569 1.1 61.8769 1.66 61.9569 2.68L62.0369 3.8H58.7969C57.7769 3.8 57.2769 4.3 57.2769 5.32V5.34ZM72.5898 10.08C72.5898 11.12 73.1098 11.64 74.1498 11.64H80.2698C81.3098 11.64 81.8298 11.12 81.8298 10.06C81.8298 9.02 81.3098 8.5 80.2698 8.5H74.1498C73.1098 8.5 72.5898 9.02 72.5898 10.06V10.08ZM93.5013 8.6C93.5013 9.06 93.7413 9.28 94.2013 9.28C94.6613 9.28 94.8813 9.06 94.8813 8.6V7.08C94.8813 6.62 94.6413 6.4 94.1813 6.4C93.7213 6.4 93.5013 6.62 93.5013 7.08V8.6ZM83.9413 3.58C83.9413 4.6 84.4413 5.1 85.4613 5.1H90.2613C90.0813 5.1 89.5613 5.58 88.6612 6.56C87.7013 7.6 86.9413 9 86.6813 10.6C86.3013 13.64 87.6813 15.56 89.5413 16.42C90.4813 16.84 91.4013 17.08 92.3413 17.12C92.9413 17.16 93.7213 17.18 94.6613 17.18C95.6213 17.2 96.1213 16.64 96.1413 15.52C96.1213 14.46 95.6213 13.94 94.6613 13.98C93.8012 14.02 93.1213 14.02 92.5813 14C91.6013 13.94 90.5213 13.42 90.0213 12.4C89.7413 11.86 89.7213 11.14 89.9613 10.24C90.3413 8.86 91.7413 7.28 93.5613 6.18C94.4613 5.64 95.2812 5.26 96.0213 5.02C96.6413 4.78 96.8813 4.2 96.7813 3.28C96.6413 2.48 96.1413 2.06 95.3013 2.04H85.4613C84.4413 2.04 83.9413 2.56 83.9413 3.58ZM95.6613 8.6C95.6613 9.06 95.9013 9.28 96.3613 9.28C96.8213 9.28 97.0413 9.06 97.0413 8.6V7.08C97.0413 6.62 96.8013 6.4 96.3413 6.4C95.8813 6.4 95.6613 6.62 95.6613 7.08V8.6ZM99.7928 3.46C99.7928 4.52 100.333 5.06 101.393 5.06H106.313C106.773 5.06 106.913 5.3 106.773 5.78C105.253 9.4 102.593 12.54 99.6528 13.92C98.8728 14.42 98.6928 15.18 99.0928 16.24C99.6528 17.02 100.373 17.16 101.253 16.64C103.073 15.54 104.773 14.04 106.313 12.14C107.973 14.38 109.153 15.78 109.833 16.36C110.393 17 111.053 17.1 111.833 16.64C112.493 15.94 112.513 15.18 111.893 14.32C110.873 13.22 109.593 11.7 108.093 9.72C108.793 8.66 109.433 7.36 110.053 5.84C110.753 4.46 110.553 3.1 109.673 2.36C109.233 1.98 108.673 1.82 108.013 1.84H101.393C100.333 1.84 99.7928 2.38 99.7928 3.44V3.46ZM120.376 2.6C120.596 1.88 120.236 1.38 119.316 1.12C118.216 0.92 117.516 1.32 117.236 2.32C116.536 4.44 115.596 6 114.456 7.02C113.796 7.7 113.776 8.48 114.436 9.36C115.136 9.9 115.896 9.78 116.676 9.04C117.456 8.3 118.276 7.16 119.156 5.58H122.976C123.676 5.6 123.996 5.94 123.896 6.64C123.836 7.04 123.736 7.42 123.616 7.8H120.096C119.116 7.8 118.616 8.3 118.616 9.3C118.616 10.28 119.116 10.78 120.096 10.78H122.196C121.816 11.32 121.376 11.8 120.876 12.26C119.436 13.54 117.636 14.38 116.496 14.68C115.636 15.02 115.356 15.7 115.636 16.72C116.076 17.62 116.776 17.88 117.716 17.52C120.376 16.58 122.016 15.66 123.696 14C125.356 12.34 126.576 9.58 127.156 6.48C127.536 3.86 126.536 2.58 124.156 2.6H120.376ZM129.465 10.08C129.465 11.12 129.985 11.64 131.025 11.64H137.145C138.185 11.64 138.705 11.12 138.705 10.06C138.705 9.02 138.185 8.5 137.145 8.5H131.025C129.985 8.5 129.465 9.02 129.465 10.06V10.08ZM141.436 16.26C141.436 17.32 141.956 17.84 143.016 17.84C144.076 17.84 144.596 17.32 144.596 16.26V9.62H151.436C152.476 9.62 152.996 9.1 152.996 8.04C152.996 7 152.476 6.48 151.436 6.48H144.596V2.66C144.596 1.6 144.076 1.08 143.016 1.08C141.956 1.08 141.436 1.6 141.436 2.66V16.26Z" fill="black"/>
</svg>
