<svg width="200" height="200" viewBox="0 0 200 200" fill="none" xmlns="http://www.w3.org/2000/svg">
<g clip-path="url(#clip0_303_2)">
<path fill-rule="evenodd" clip-rule="evenodd" d="M48.4832 121.125V78.8724L101.235 38.236V161.763L48.4832 121.125Z" fill="url(#paint0_linear_303_2)"/>
<path d="M36.1547 78.6777H13.735V121.319H36.1547V78.6777Z" fill="url(#paint1_linear_303_2)"/>
<path fill-rule="evenodd" clip-rule="evenodd" d="M143.939 51.6526L143.403 51.0046L136.104 57.1294C146.183 69.1413 151.707 84.319 151.707 99.9996C151.707 115.68 146.183 130.858 136.104 142.867L143.403 148.992L143.939 148.347C155.116 134.724 161.235 117.64 161.235 99.9996C161.235 82.3597 155.116 65.2752 143.939 51.6526Z" fill="url(#paint2_linear_303_2)"/>
<path fill-rule="evenodd" clip-rule="evenodd" d="M125.727 70.1896L125.062 69.3788L117.763 75.5029C123.522 82.3657 126.679 91.0391 126.679 99.9995C126.679 108.96 123.522 117.631 117.763 124.496L125.062 130.62L125.727 129.809C132.504 121.362 136.207 110.848 136.207 99.9995C136.207 89.1508 132.504 78.6372 125.727 70.1896Z" fill="url(#paint3_linear_303_2)"/>
<path fill-rule="evenodd" clip-rule="evenodd" d="M162.481 33.5255L161.744 32.6356L154.445 38.761C168.843 55.9189 176.736 77.604 176.736 100.002C176.736 122.4 168.843 144.085 154.445 161.243L161.744 167.368L162.481 166.478C177.851 147.748 186.263 124.257 186.263 100.002C186.263 75.7465 177.851 52.2558 162.481 33.5255Z" fill="url(#paint4_linear_303_2)"/>
</g>
<defs>
<linearGradient id="paint0_linear_303_2" x1="197.466" y1="-0.00158864" x2="-2.53395" y2="200.002" gradientUnits="userSpaceOnUse">
<stop stop-color="#5CB2EA"/>
<stop offset="1" stop-color="#5956AC"/>
</linearGradient>
<linearGradient id="paint1_linear_303_2" x1="197.466" y1="-0.00194927" x2="-2.53352" y2="200.001" gradientUnits="userSpaceOnUse">
<stop stop-color="#008AE2"/>
<stop offset="1" stop-color="#5956AC"/>
</linearGradient>
<linearGradient id="paint2_linear_303_2" x1="197.465" y1="-0.00211912" x2="-2.53443" y2="200.001" gradientUnits="userSpaceOnUse">
<stop stop-color="#55B8F7"/>
<stop offset="1" stop-color="#5956AC"/>
</linearGradient>
<linearGradient id="paint3_linear_303_2" x1="197.465" y1="-0.00104136" x2="-2.53528" y2="200.002" gradientUnits="userSpaceOnUse">
<stop stop-color="#1394E7"/>
<stop offset="1" stop-color="#5956AC"/>
</linearGradient>
<linearGradient id="paint4_linear_303_2" x1="197.465" y1="6.14785e-05" x2="-2.53429" y2="200.003" gradientUnits="userSpaceOnUse">
<stop stop-color="#98CDEF"/>
<stop offset="1" stop-color="#5956AC"/>
</linearGradient>
<clipPath id="clip0_303_2">
<rect width="200" height="200" fill="white"/>
</clipPath>
</defs>
</svg>
