<svg width="200" height="201" viewBox="0 0 200 201" fill="none" xmlns="http://www.w3.org/2000/svg">
<path fill-rule="evenodd" clip-rule="evenodd" d="M48.4845 121.127V78.8742L101.237 38.2377V161.764L48.4845 121.127Z" fill="url(#paint0_linear_303_19)"/>
<path d="M36.156 78.6794H13.7363V121.32H36.156V78.6794Z" fill="url(#paint1_linear_303_19)"/>
<path fill-rule="evenodd" clip-rule="evenodd" d="M124.136 77.0384L175.953 128.856C177.581 130.481 180.221 130.481 181.846 128.856C183.473 127.231 183.473 124.591 181.846 122.963L130.028 71.1458C128.401 69.5183 125.761 69.5183 124.136 71.1458C122.508 72.7708 122.508 75.4109 124.136 77.0384Z" fill="url(#paint2_linear_303_19)"/>
<path fill-rule="evenodd" clip-rule="evenodd" d="M130.028 128.855L181.846 77.0375C183.473 75.41 183.473 72.7699 181.846 71.1449C180.221 69.5199 177.581 69.5199 175.953 71.1449L124.136 122.962C122.508 124.59 122.508 127.23 124.136 128.855C125.761 130.482 128.401 130.482 130.028 128.855Z" fill="url(#paint3_linear_303_19)"/>
<defs>
<linearGradient id="paint0_linear_303_19" x1="197.467" y1="0.000120343" x2="-2.53266" y2="200.003" gradientUnits="userSpaceOnUse">
<stop stop-color="#62A3CC"/>
<stop offset="1" stop-color="#5956AC"/>
</linearGradient>
<linearGradient id="paint1_linear_303_19" x1="197.467" y1="-0.000247322" x2="-2.53225" y2="200.003" gradientUnits="userSpaceOnUse">
<stop stop-color="#0780CD"/>
<stop offset="1" stop-color="#5956AC"/>
</linearGradient>
<linearGradient id="paint2_linear_303_19" x1="200.001" y1="-0.00168444" x2="0.000985565" y2="200.001" gradientUnits="userSpaceOnUse">
<stop stop-color="#008AE2"/>
<stop offset="1" stop-color="#5956AC"/>
</linearGradient>
<linearGradient id="paint3_linear_303_19" x1="200.001" y1="-9.26343e-05" x2="0.000982589" y2="200.003" gradientUnits="userSpaceOnUse">
<stop stop-color="#008AE2"/>
<stop offset="1" stop-color="#5956AC"/>
</linearGradient>
</defs>
</svg>
