<svg width="230" height="68" viewBox="0 0 230 68" fill="none" xmlns="http://www.w3.org/2000/svg">
<path d="M0.318845 34.5216C0.123119 34.2014 0.123119 33.7986 0.318845 33.4784L16.1468 7.58666C16.6735 6.72503 18 7.09836 18 8.10823L18 59.8918C18 60.9016 16.6735 61.275 16.1468 60.4133L0.318845 34.5216Z" fill="#C4C4C4"/>
<path d="M229.681 33.4784C229.877 33.7986 229.877 34.2014 229.681 34.5216L213.853 60.4133C213.326 61.275 212 60.9016 212 59.8918V8.10823C212 7.09835 213.326 6.72503 213.853 7.58666L229.681 33.4784Z" fill="#C4C4C4"/>
<rect x="17" y="7" width="196" height="54" fill="#C4C4C4"/>
<rect x="15" y="9" width="200" height="50" rx="6" fill="#008AE2"/>
<rect x="24" y="14" width="180" height="40" rx="5" fill="white"/>
<path d="M19.098 34.3054C19.0343 34.1068 19.0343 33.8932 19.098 33.6946L24.5478 16.7037C24.8963 15.6173 26.5 15.8682 26.5 17.0091L26.5 50.9909C26.5 52.1318 24.8963 52.3827 24.5478 51.2963L19.098 34.3054Z" fill="white"/>
<path d="M208.902 33.6946C208.966 33.8932 208.966 34.1068 208.902 34.3054L203.452 51.2963C203.104 52.3827 201.5 52.1318 201.5 50.9909V17.0091C201.5 15.8682 203.104 15.6173 203.452 16.7037L208.902 33.6946Z" fill="white"/>
<path d="M3.28868 34.5C3.11004 34.1906 3.11004 33.8094 3.28868 33.5L16.134 11.2513C16.6455 10.3653 18 10.7282 18 11.7513L18 56.2487C18 57.2718 16.6455 57.6347 16.134 56.7487L3.28868 34.5Z" fill="#008AE2"/>
<path d="M226.711 33.5C226.89 33.8094 226.89 34.1906 226.711 34.5L213.866 56.7487C213.354 57.6347 212 57.2718 212 56.2487V11.7513C212 10.7282 213.354 10.3653 213.866 11.2513L226.711 33.5Z" fill="#008AE2"/>
<path d="M78.2 31.12C78.2 32.1 78.7 32.6 79.68 32.6H86.6C87.08 32.62 87.24 32.88 87.1 33.42C86.92 34.28 85.72 35.56 84.36 36.22C83.66 36.56 82.64 36.94 81.32 37.32C80.38 37.54 79.96 38.12 80.04 39.08C80.26 40.1 80.9 40.54 81.96 40.36C84.84 39.78 86.46 38.98 88.32 37.3C89.22 36.48 89.94 35.38 90.44 33.96C91.06 32.46 90.84 31.04 90 30.22C89.58 29.82 89.06 29.62 88.44 29.62H79.68C78.7 29.62 78.2 30.12 78.2 31.1V31.12ZM78.76 26.26C78.76 27.24 79.26 27.74 80.24 27.74H88.8C89.78 27.74 90.28 27.24 90.28 26.24C90.28 25.26 89.78 24.76 88.8 24.76H80.24C79.26 24.76 78.76 25.26 78.76 26.24V26.26ZM93.3892 26.54C93.3892 27.58 93.9092 28.1 94.9492 28.1H98.3892C99.4292 28.1 99.9492 27.58 99.9492 26.54C99.9492 25.5 99.4292 24.98 98.3892 24.98H94.9492C93.9092 24.98 93.3892 25.5 93.3892 26.54ZM93.5692 38.84C93.8292 39.86 94.4092 40.3 95.3292 40.12C98.3892 39.46 100.369 38.44 101.829 37.04C102.549 36.34 103.289 35.46 104.049 34.4C105.069 32.94 105.769 31.6 106.129 30.36C106.429 29.5 106.149 28.86 105.249 28.44C104.309 28.22 103.669 28.5 103.329 29.32C102.609 31.58 100.989 33.78 98.9292 35.38C97.9292 36.16 96.5692 36.7 94.8492 37C93.8692 37.18 93.4292 37.78 93.5692 38.84ZM108.703 28.34C108.703 29.36 109.203 29.86 110.223 29.86H113.683L113.863 32.54H110.263C109.223 32.54 108.703 33.06 108.703 34.12C108.703 35.16 109.223 35.68 110.263 35.68H114.083L114.363 39.54C114.423 40.56 114.983 41.04 116.023 40.98C117.063 40.9 117.543 40.34 117.463 39.32L117.203 35.68H120.543C121.583 35.68 122.103 35.16 122.103 34.12V34.1C122.103 33.06 121.583 32.54 120.543 32.54H116.983L116.803 29.86H120.583C121.603 29.86 122.103 29.34 122.103 28.32C122.103 27.3 121.603 26.8 120.583 26.8H116.583L116.483 25.46C116.423 24.44 115.863 23.96 114.823 24.02C113.783 24.1 113.303 24.66 113.383 25.68L113.463 26.8H110.223C109.203 26.8 108.703 27.3 108.703 28.32V28.34ZM123.956 26.54C123.956 27.58 124.476 28.1 125.516 28.1H128.956C129.996 28.1 130.516 27.58 130.516 26.54C130.516 25.5 129.996 24.98 128.956 24.98H125.516C124.476 24.98 123.956 25.5 123.956 26.54ZM124.136 38.84C124.396 39.86 124.976 40.3 125.896 40.12C128.956 39.46 130.936 38.44 132.396 37.04C133.116 36.34 133.856 35.46 134.616 34.4C135.636 32.94 136.336 31.6 136.696 30.36C136.996 29.5 136.716 28.86 135.816 28.44C134.876 28.22 134.236 28.5 133.896 29.32C133.176 31.58 131.556 33.78 129.496 35.38C128.496 36.16 127.136 36.7 125.416 37C124.436 37.18 123.996 37.78 124.136 38.84ZM148.449 24C148.449 24.46 148.689 24.68 149.149 24.68C149.609 24.68 149.829 24.46 149.829 24V22.48C149.829 22.02 149.589 21.8 149.129 21.8C148.669 21.8 148.449 22.02 148.449 22.48V24ZM139.569 32.36C140.269 32.9 141.029 32.78 141.809 32.04C142.589 31.3 143.349 30.32 144.129 29.06H147.709C148.409 29.06 148.729 29.42 148.629 30.12C148.329 32.58 146.629 34.76 144.589 36.18C143.569 36.88 142.609 37.36 141.709 37.6C140.849 37.94 140.569 38.62 140.849 39.64C141.289 40.54 141.989 40.8 142.929 40.44C145.249 39.56 146.969 38.6 148.589 37C150.249 35.34 151.509 32.44 151.889 29.96C152.269 27.38 151.269 26.08 148.889 26.08H145.349C145.669 25.04 145.369 24.38 144.449 24.12C143.349 23.92 142.649 24.32 142.369 25.32C141.669 27.44 140.729 29 139.589 30.02C138.929 30.7 138.909 31.48 139.569 32.36ZM150.609 24C150.609 24.46 150.849 24.68 151.309 24.68C151.769 24.68 151.989 24.46 151.989 24V22.48C151.989 22.02 151.749 21.8 151.289 21.8C150.829 21.8 150.609 22.02 150.609 22.48V24Z" fill="#008AE2"/>
<path d="M97.576 45.32V48.664C97.576 49.056 97.896 49.384 98.288 49.384C98.68 49.384 99 49.056 99 48.664V46.72C99.216 46.168 99.6 45.904 99.976 45.904H100.024C100.376 45.912 100.672 45.624 100.672 45.272C100.672 45.112 100.616 44.968 100.496 44.84C100.32 44.656 100.08 44.616 99.784 44.72C99.416 44.848 99.112 45.128 98.864 45.56H98.84L98.8 45.24C98.76 44.944 98.504 44.704 98.192 44.704C97.848 44.704 97.576 44.976 97.576 45.32ZM102.439 49.432C102.887 49.432 103.319 49.24 103.743 48.864H103.783V48.872C103.775 48.968 103.839 49.08 103.975 49.208C104.095 49.32 104.239 49.376 104.407 49.376C104.759 49.376 105.039 49.088 105.039 48.744V46.736C105.039 45.336 104.391 44.656 103.199 44.656C102.703 44.656 102.199 44.776 101.679 45.024C101.495 45.12 101.375 45.288 101.375 45.504C101.375 45.8 101.615 46.04 101.911 46.04C101.991 46.04 102.063 46.024 102.127 45.992C102.415 45.856 102.679 45.792 102.927 45.792C103.375 45.792 103.583 45.992 103.615 46.376C101.847 46.568 101.087 47.08 101.087 48.048C101.087 48.864 101.647 49.432 102.439 49.432ZM102.439 47.936C102.439 47.576 102.831 47.344 103.615 47.24V47.968C103.391 48.216 103.191 48.328 102.927 48.328C102.615 48.328 102.439 48.192 102.439 47.936ZM106.139 45.336V48.664C106.139 49.056 106.459 49.384 106.851 49.384C107.243 49.384 107.562 49.056 107.562 48.664V46.28C107.859 45.992 108.051 45.872 108.347 45.872C108.723 45.872 108.875 46.072 108.875 46.68V48.664C108.875 49.056 109.195 49.384 109.587 49.384C109.979 49.384 110.299 49.056 110.299 48.664V46.504C110.299 45.328 109.843 44.656 108.883 44.656C108.315 44.656 107.851 44.92 107.427 45.336H107.403L107.379 45.224C107.323 44.936 107.075 44.712 106.763 44.712C106.419 44.712 106.139 44.992 106.139 45.336ZM111.404 43.568V48.68C111.404 49.064 111.716 49.384 112.108 49.384C112.492 49.384 112.804 49.064 112.804 48.68V48.192L113.332 47.592L114.164 49.056C114.284 49.256 114.492 49.384 114.724 49.384C115.076 49.384 115.364 49.088 115.364 48.736C115.364 48.608 115.332 48.496 115.268 48.392L114.164 46.664L115.1 45.544C115.452 45.104 115.26 44.768 114.74 44.768H114.668C114.34 44.768 114.092 44.88 113.892 45.144L112.844 46.48H112.804V43.568C112.804 43.184 112.492 42.864 112.108 42.864C111.716 42.864 111.404 43.184 111.404 43.568ZM116.474 45.416V48.664C116.474 49.056 116.794 49.384 117.186 49.384C117.578 49.384 117.898 49.056 117.898 48.664V45.416C117.898 45.024 117.578 44.704 117.186 44.704C116.794 44.704 116.474 45.024 116.474 45.416ZM116.394 43.4C116.394 43.848 116.706 44.136 117.186 44.136C117.658 44.136 117.978 43.848 117.978 43.4C117.978 42.96 117.658 42.672 117.186 42.672C116.706 42.672 116.394 42.96 116.394 43.4ZM119.045 45.336V48.664C119.045 49.056 119.365 49.384 119.757 49.384C120.149 49.384 120.469 49.056 120.469 48.664V46.28C120.765 45.992 120.957 45.872 121.253 45.872C121.629 45.872 121.781 46.072 121.781 46.68V48.664C121.781 49.056 122.101 49.384 122.493 49.384C122.885 49.384 123.205 49.056 123.205 48.664V46.504C123.205 45.328 122.749 44.656 121.789 44.656C121.221 44.656 120.757 44.92 120.333 45.336H120.309L120.285 45.224C120.229 44.936 119.981 44.712 119.669 44.712C119.325 44.712 119.045 44.992 119.045 45.336ZM125.942 51.232C127.55 51.232 128.526 50.536 128.526 49.592C128.526 48.792 127.918 48.424 126.766 48.424H126.046C125.806 48.424 125.638 48.4 125.534 48.352C125.43 48.304 125.374 48.224 125.374 48.12C125.374 47.968 125.414 47.904 125.518 47.8C125.71 47.856 125.886 47.88 126.054 47.88C127.134 47.88 127.87 47.368 127.87 46.352C127.87 46.144 127.83 45.96 127.75 45.8H127.99C128.27 45.8 128.51 45.568 128.51 45.28C128.51 45 128.27 44.768 127.99 44.768H126.774C126.558 44.696 126.318 44.656 126.054 44.656C124.966 44.656 124.15 45.28 124.15 46.304C124.15 46.808 124.422 47.24 124.774 47.488V47.52C124.462 47.736 124.262 48.056 124.262 48.368C124.262 48.704 124.398 48.968 124.678 49.152V49.192C124.254 49.408 124.038 49.712 124.038 50.088C124.038 50.856 124.814 51.232 125.942 51.232ZM125.206 49.864C125.206 49.712 125.278 49.576 125.414 49.456C125.55 49.496 125.766 49.512 126.062 49.512H126.494C126.95 49.512 127.158 49.584 127.158 49.84C127.158 50.128 126.742 50.344 126.166 50.344C125.582 50.344 125.206 50.176 125.206 49.864ZM125.478 46.304C125.478 45.864 125.71 45.608 126.054 45.608C126.406 45.608 126.638 45.856 126.638 46.304C126.638 46.776 126.406 47.024 126.054 47.024C125.71 47.024 125.478 46.76 125.478 46.304Z" fill="#008AE2"/>
</svg>
